<svg width="220" height="220" viewBox="0 0 220 220" fill="none" xmlns="http://www.w3.org/2000/svg">
<path d="M163.276 92.3213C167.884 93.2752 172.612 93.4794 177.274 92.9253C186.644 91.8177 195.719 87.6669 202.904 80.4811C219.899 63.4864 219.899 35.9285 202.904 18.9342C185.906 1.93544 158.352 1.93947 141.358 18.9342C134.191 26.1009 130.048 35.144 128.921 44.48C128.36 49.1652 128.556 53.9235 129.518 58.5552" fill="#E1F4F9"/>
<path d="M172.129 95.7512C168.992 95.7512 165.859 95.43 162.765 94.7897L163.787 89.853C168.138 90.7539 172.575 90.9455 176.977 90.4222C186.194 89.3322 194.543 85.2787 201.122 78.6989C208.866 70.9555 213.13 60.6596 213.13 49.7082C213.13 38.7563 208.866 28.4604 201.122 20.717C185.136 4.73154 159.126 4.73103 143.14 20.717C136.585 27.2726 132.533 35.5942 131.424 44.7826C130.892 49.2222 131.081 53.6845 131.986 58.043L127.05 59.0679C126.033 54.1736 125.821 49.1647 126.419 44.1801C127.665 33.8584 132.214 24.5128 139.575 17.1515C157.527 -0.800111 186.736 -0.799608 204.687 17.1515C213.383 25.8473 218.171 37.4092 218.171 49.7077C218.171 62.0062 213.382 73.5681 204.687 82.2639C197.299 89.6523 187.922 94.2049 177.57 95.429C175.76 95.6438 173.944 95.7512 172.129 95.7512Z" fill="#333333"/>
<path d="M200.992 30.9126C200.209 30.9126 199.437 30.5486 198.944 29.865C197.909 28.4276 196.744 27.0588 195.482 25.7964C193.413 23.7278 191.092 21.9487 188.581 20.5083C187.373 19.8156 186.956 18.2748 187.649 17.0674C188.342 15.8599 189.882 15.443 191.089 16.1352C193.986 17.7974 196.663 19.8483 199.047 22.2315C200.5 23.6855 201.842 25.262 203.035 26.9187C203.849 28.0485 203.592 29.624 202.463 30.4372C202.017 30.7579 201.502 30.9126 200.992 30.9126Z" fill="white"/>
<path d="M197.264 76.5966C196.619 76.5966 195.974 76.3505 195.482 75.8585C194.497 74.8739 194.497 73.2777 195.482 72.2936C205.01 62.7649 207.757 48.0813 202.317 35.7561C201.754 34.4825 202.331 32.9943 203.605 32.4321C204.879 31.87 206.367 32.4467 206.929 33.7203C209.984 40.6419 210.894 48.2522 209.562 55.7294C208.198 63.383 204.562 70.3435 199.047 75.859C198.555 76.3505 197.91 76.5966 197.264 76.5966Z" fill="white"/>
<path d="M145.053 45.4168C149.28 45.4168 152.707 41.9896 152.707 37.7621C152.707 33.5345 149.28 30.1074 145.053 30.1074C140.825 30.1074 137.398 33.5345 137.398 37.7621C137.398 41.9896 140.825 45.4168 145.053 45.4168Z" fill="#F9E33D"/>
<path d="M184.077 84.4408C188.305 84.4408 191.732 81.0137 191.732 76.7861C191.732 72.5586 188.305 69.1315 184.077 69.1315C179.85 69.1315 176.422 72.5586 176.422 76.7861C176.422 81.0137 179.85 84.4408 184.077 84.4408Z" fill="#F9E33D"/>
<path d="M145.053 47.9376C142.335 47.9376 139.78 46.8794 137.857 44.9575C133.89 40.9898 133.89 34.5345 137.857 30.5673C139.78 28.6454 142.335 27.5867 145.053 27.5867C147.77 27.5867 150.326 28.6449 152.247 30.5673C154.169 32.4891 155.228 35.0442 155.228 37.7626C155.228 40.4806 154.169 43.0357 152.247 44.958C150.326 46.8789 147.77 47.9376 145.053 47.9376ZM145.053 32.6278C143.681 32.6278 142.392 33.1617 141.422 34.1317C139.421 36.1332 139.421 39.3906 141.422 41.3921C142.392 42.3616 143.681 42.8955 145.053 42.8955C146.424 42.8955 147.713 42.3616 148.683 41.3921C149.653 40.4226 150.186 39.1335 150.186 37.7621C150.186 36.3908 149.653 35.1017 148.683 34.1317C147.713 33.1617 146.423 32.6278 145.053 32.6278Z" fill="#666666"/>
<path d="M184.077 86.9571C181.471 86.9571 178.866 85.9654 176.882 83.9816C174.96 82.0592 173.901 79.5041 173.901 76.7862C173.901 74.0683 174.96 71.5132 176.882 69.5913C178.804 67.6695 181.359 66.6107 184.077 66.6107C186.795 66.6107 189.35 67.6695 191.272 69.5913C195.239 73.5586 195.239 80.0138 191.272 83.9816C189.289 85.9649 186.682 86.9571 184.077 86.9571ZM184.077 71.6523C182.705 71.6523 181.416 72.1862 180.447 73.1557C179.477 74.1257 178.943 75.4149 178.943 76.7862C178.943 78.1575 179.477 79.4466 180.447 80.4166C182.449 82.4182 185.706 82.4187 187.707 80.4166C189.709 78.4151 189.709 75.1577 187.707 73.1562C186.738 72.1862 185.448 71.6523 184.077 71.6523Z" fill="#666666"/>
<path d="M140.976 77.432C130.526 66.9823 130.526 49.9794 140.976 39.5302L147.537 32.9691C157.987 22.5193 174.989 22.5198 185.439 32.9691L188.868 36.3979C199.317 46.8476 199.317 63.8504 188.868 74.2996L182.306 80.8608C171.857 91.3105 154.854 91.31 144.405 80.8608L140.976 77.432Z" fill="#8FCDF7"/>
<path d="M29.4798 78.4983L26.4639 81.5142C24.8097 83.1683 24.8097 85.8454 26.4598 87.496L36.415 84.3571L29.4798 78.4983Z" fill="#F9763D"/>
<path d="M68.7544 217.479L50.1983 198.923L57.3302 195.984L65.2041 203.858L68.7544 217.479Z" fill="#F9763D"/>
<path d="M99.9937 180.093C98.7857 181.363 96.9163 183.255 94.5236 185.448L82.6566 173.581L82.6526 173.577C83.7799 172.127 84.8608 170.622 85.8686 169.069C90.4464 172.9 95.1548 176.577 99.9937 180.093Z" fill="#158ACC"/>
<path d="M82.6566 173.58L94.5235 185.447C92.6077 187.209 90.3576 189.16 87.8495 191.137L76.89 180.177C78.8749 178.131 80.829 175.923 82.6526 173.576L82.6566 173.58Z" fill="#53AEF9"/>
<path d="M76.8905 180.178L87.8499 191.137C85.6382 192.88 83.2222 194.642 80.6606 196.311L70.5285 186.179C72.5976 184.379 74.7594 182.37 76.8905 180.178Z" fill="#53AEF9"/>
<path d="M70.528 186.178L80.6601 196.31C78.1635 197.93 75.5207 199.465 72.7861 200.8L63.6543 191.668C65.6734 190.179 68.0354 188.333 70.528 186.178Z" fill="#53AEF9"/>
<path d="M63.6538 191.668L72.7857 200.8C70.3274 202.003 67.789 203.05 65.2036 203.858L57.3297 195.984C57.3302 195.984 59.8994 194.445 63.6538 191.668Z" fill="#53AEF9"/>
<path d="M181.744 69.9467L175.539 76.1514C168.192 83.4985 156.275 83.4985 148.928 76.1514L145.685 72.9086C138.338 65.5615 138.338 53.6442 145.685 46.297L151.889 40.0923C159.237 32.7452 171.154 32.7452 178.501 40.0923L181.744 43.3351C189.091 50.6827 189.091 62.5996 181.744 69.9467Z" fill="#D8B86F"/>
<path d="M177.001 65.2041L170.796 71.4088C163.449 78.7559 153.425 80.649 148.412 75.6367L146.2 73.4244C141.187 68.4115 143.081 58.3878 150.428 51.0407L156.633 44.836C163.98 37.4888 174.003 35.5957 179.016 40.6081L181.229 42.8203C186.241 47.8327 184.348 57.8569 177.001 65.2041Z" fill="#F7D789"/>
<path d="M25.8448 164.498L22.906 171.63L4.3494 153.074L17.9708 156.624L25.8448 164.498Z" fill="#F9763D"/>
<path d="M25.8448 164.498L17.9708 156.624C18.7785 154.04 19.8251 151.501 21.029 149.042L30.1609 158.174C27.3835 161.929 25.8448 164.498 25.8448 164.498Z" fill="#53AEF9"/>
<path d="M41.7395 121.831C45.2555 126.67 48.9288 131.382 52.7605 135.96C51.2066 136.968 49.7022 138.049 48.2522 139.176L48.2482 139.172L36.3813 127.305C38.5734 124.912 40.47 123.039 41.7395 121.831Z" fill="#158ACC"/>
<path d="M30.1609 158.175L21.0286 149.042C22.3636 146.307 23.8982 143.665 25.5176 141.168L35.6497 151.301C33.4959 153.793 31.6492 156.155 30.1609 158.175Z" fill="#53AEF9"/>
<path d="M48.2477 139.172L48.2517 139.176C45.9053 141 43.6971 142.954 41.6507 144.939L30.6913 133.979C32.6686 131.471 34.6187 129.221 36.3807 127.305L48.2477 139.172Z" fill="#53AEF9"/>
<path d="M35.6502 151.301L25.5181 141.168C27.1874 138.606 28.9494 136.191 30.6918 133.979L41.6512 144.939C39.4581 147.069 37.4501 149.231 35.6502 151.301Z" fill="#53AEF9"/>
<path d="M167.003 150.697C165.918 150.281 164.888 149.635 164.01 148.758C160.675 145.423 160.679 140.011 164.015 136.675C166.372 134.317 169.773 133.625 172.743 134.61C174.224 129.79 175.327 125.47 176.155 121.827C177.92 114.007 178.382 109.276 178.382 109.276C178.617 107.718 178.744 106.137 178.755 104.556L176.693 92.0849C175.985 90.1001 175.105 88.1651 174.035 86.2957L174.031 86.2916C163.341 96.0507 146.758 95.7623 136.414 85.4184C126.074 75.0786 125.786 58.4952 135.545 47.8055C133.679 46.7402 131.737 45.8514 129.74 45.1395L117.269 43.0775C115.692 43.0931 114.126 43.2197 112.553 43.4466C112.553 43.4466 107.818 43.9119 100.005 45.6775C95.905 46.6006 90.9657 47.8857 85.4149 49.6513L74.702 53.4093L74.698 53.4052C61.0347 58.6596 45.1169 66.5996 29.4803 78.4973L33.1768 81.6171L33.5963 81.975L36.4161 84.3562C36.4161 84.3562 58.3617 72.1046 74.0138 71.8777L73.979 71.9125L65.9357 79.9558L34.5083 111.383C36.8355 114.926 39.2434 118.411 41.74 121.831C45.256 126.67 48.9293 131.382 52.7609 135.96C57.7768 141.961 63.0584 147.727 68.5825 153.251C74.1066 158.775 79.8727 164.056 85.8697 169.068C90.4474 172.899 95.1558 176.577 99.9947 180.093C103.414 182.582 106.9 184.99 110.446 187.321C110.45 187.325 110.45 187.325 110.454 187.328L141.881 155.901L149.924 147.858L149.947 147.835C149.717 163.483 137.472 185.413 137.472 185.413L140.211 188.651L143.331 192.348C154.209 178.062 161.771 163.53 167.003 150.697ZM117.138 130.798L91.0307 104.69L114.765 80.9566L140.873 107.064L117.138 130.798Z" fill="#44A1E0"/>
<path d="M164.672 143.379L164.668 143.375L168.426 132.662C170.192 127.111 171.477 122.172 172.4 118.071C172.408 118.033 172.419 117.998 172.427 117.96C173.585 112.84 174.089 107.597 173.962 102.346L173.638 89.0287C173.454 88.398 173.25 87.7783 173.019 87.1708C155.328 93.4295 125.709 82.2739 134.664 48.8153C134.052 48.5884 133.429 48.3807 132.798 48.1962L119.485 47.869C114.234 47.742 108.987 48.2421 103.867 49.4001C103.832 49.4117 103.794 49.4193 103.756 49.4269C99.6554 50.35 94.7161 51.6351 89.1653 53.4007L78.4524 57.1587L78.4484 57.1546C64.889 62.3671 49.1133 70.2255 33.5957 81.9734L36.4155 84.3546C36.4155 84.3546 58.3611 72.103 74.0133 71.8761L70.7398 82.6505C71.432 82.8199 39.4505 116.324 39.4505 116.324C41.3971 119.487 43.4203 122.587 45.5322 125.622C48.5058 129.919 51.6331 134.084 54.9182 138.116C58.6762 142.736 62.6424 147.179 66.7927 151.437C67.3851 152.045 67.9815 152.648 68.5814 153.249C69.1814 153.849 69.7854 154.445 70.3934 155.037C74.6515 159.188 79.0947 163.154 83.7143 166.912C87.7456 170.197 91.9079 173.329 96.2044 176.302C99.2394 178.407 102.34 180.43 105.502 182.376C105.506 182.381 105.506 182.381 105.509 182.384L138.895 148.999C138.914 149.702 149.95 147.814 149.95 147.814V147.821C149.95 147.829 149.95 147.829 149.946 147.833C149.904 150.63 149.481 153.622 148.811 156.661C148.726 157.038 148.642 157.415 148.549 157.792C148.342 158.661 148.115 159.527 147.872 160.393C147.734 160.893 147.591 161.389 147.445 161.881C145.76 167.52 143.499 172.975 141.556 177.21C141.398 177.56 141.241 177.895 141.091 178.222C140.714 179.03 140.352 179.784 140.01 180.472C139.875 180.761 139.741 181.034 139.61 181.296C139.387 181.749 139.176 182.169 138.975 182.553C138.91 182.688 138.848 182.811 138.783 182.931C138.66 183.177 138.544 183.4 138.433 183.611C137.833 184.765 137.471 185.412 137.471 185.412L139.852 188.231C151.601 172.713 159.46 156.938 164.672 143.379ZM115.442 129.1L92.7312 106.389L116.465 82.6551L139.176 105.366L115.442 129.1Z" fill="#53AEF9"/>
<path d="M90.8271 55.0639L83.5914 62.2996L74.7015 53.4098L74.6975 53.4057C77.9594 52.1519 81.0948 51.0478 84.0602 50.0823C84.518 49.9321 84.9682 49.7899 85.4144 49.6512L90.8271 55.0639Z" fill="#F9E33D"/>
<path d="M167.003 150.697C165.918 150.281 164.888 149.635 164.011 148.758C160.675 145.423 160.679 140.011 164.015 136.675C166.373 134.317 169.773 133.625 172.743 134.61C172.431 135.637 172.1 136.691 171.746 137.768C170.43 141.807 168.869 146.146 167.003 150.697Z" fill="#F9E33D"/>
<path d="M163.356 91.2173C155.846 91.2173 148.339 88.3597 142.622 82.643L139.193 79.2142C127.761 67.7819 127.761 49.1799 139.193 37.747L145.754 31.1859C151.284 25.6562 158.648 22.6106 166.488 22.6106C166.488 22.6106 166.488 22.6106 166.488 22.6106C174.328 22.6106 181.691 25.6562 187.221 31.1864L190.65 34.6152C202.083 46.048 202.083 64.6495 190.65 76.0824L184.089 82.6435C178.373 88.3587 170.863 91.2173 163.356 91.2173ZM166.487 27.6527C159.994 27.6527 153.896 30.1735 149.319 34.7513L142.758 41.3124C133.291 50.7791 133.291 66.1827 142.758 75.6493L146.187 79.0781C155.654 88.5452 171.058 88.5452 180.524 79.0781L187.085 72.5169C196.551 63.0503 196.551 47.6467 187.085 38.1801L183.656 34.7513C179.078 30.174 172.981 27.6527 166.487 27.6527Z" fill="#666666"/>
<path d="M162.233 84.1827C156.533 84.1827 151.175 81.9639 147.145 77.9341L143.902 74.6914C135.582 66.3717 135.582 52.8345 143.902 44.5149L150.107 38.3102C154.136 34.2804 159.495 32.0611 165.195 32.0611C170.896 32.0611 176.254 34.2804 180.283 38.3102L183.526 41.5529C191.846 49.8726 191.846 63.4098 183.526 71.7294L177.321 77.9341C173.292 81.9634 167.933 84.1827 162.233 84.1827ZM165.195 37.1032C160.842 37.1032 156.75 38.7982 153.672 41.8756L147.467 48.0803C141.114 54.4342 141.114 64.773 147.467 71.127L150.71 74.3697C153.788 77.4471 157.88 79.1416 162.233 79.1416C166.587 79.1416 170.679 77.4471 173.756 74.3697L179.961 68.165C186.315 61.8111 186.315 51.4723 179.961 45.1183L176.718 41.8756C173.641 38.7977 169.549 37.1032 165.195 37.1032Z" fill="#666666"/>
<path d="M25.8443 167.019C25.1804 167.019 24.5376 166.756 24.0621 166.281L16.1882 158.407C15.5252 157.744 15.2847 156.768 15.5645 155.872C16.3692 153.297 17.446 150.625 18.7649 147.933C20.0566 145.287 21.6175 142.549 23.4032 139.796C25.0049 137.339 26.7896 134.858 28.712 132.419C30.5391 130.101 32.4947 127.807 34.526 125.598C36.7937 123.124 38.7559 121.19 40.0022 120.004L43.4774 123.657C42.288 124.788 40.4141 126.635 38.2396 129.008C36.2921 131.126 34.4196 133.322 32.6717 135.539C30.8431 137.86 29.1466 140.217 27.6301 142.544C25.9578 145.122 24.4982 147.682 23.2943 150.148C22.3324 152.112 21.5141 154.054 20.8532 155.941L25.4214 160.51C26.1257 159.465 27.0352 158.162 28.1347 156.675C29.9094 154.268 31.7975 151.904 33.7435 149.652C35.7738 147.318 37.8418 145.125 39.8943 143.13C42.1408 140.951 44.4317 138.952 46.7055 137.185C48.2679 135.971 49.8439 134.847 51.3886 133.845L52.7534 135.949L54.5472 137.739C54.4222 137.864 54.2805 137.979 54.1323 138.075C52.707 138.999 51.2495 140.039 49.799 141.166C47.67 142.821 45.5192 144.699 43.4063 146.748C41.4562 148.644 39.4859 150.733 37.5525 152.956C35.6966 155.103 33.8907 157.364 32.1907 159.671C29.5293 163.269 28.0223 165.77 28.0077 165.795C27.6084 166.46 26.9243 166.905 26.1539 167C26.05 167.013 25.9472 167.019 25.8443 167.019Z" fill="#333333"/>
<path d="M158.521 57.9618C157.876 57.9618 157.231 57.7158 156.738 57.2237C155.754 56.2391 155.754 54.6429 156.738 53.6588L164.209 46.1887C165.193 45.204 166.789 45.204 167.774 46.1887C168.758 47.1733 168.758 48.7695 167.774 49.7536L160.303 57.2237C159.811 57.7158 159.166 57.9618 158.521 57.9618Z" fill="#666666"/>
<path d="M166.395 65.8358C165.75 65.8358 165.105 65.5897 164.612 65.0977C163.628 64.1131 163.628 62.5169 164.612 61.5328L172.083 54.0626C173.068 53.0785 174.663 53.0785 175.648 54.0626C176.632 55.0472 176.632 56.6429 175.648 57.6275L168.177 65.0977C167.685 65.5897 167.04 65.8358 166.395 65.8358Z" fill="#666666"/>
<path d="M26.4604 90.0163C25.8151 90.0163 25.1697 89.7703 24.6777 89.2777C22.047 86.6465 22.049 82.3642 24.6817 79.7309L27.6976 76.715C28.6242 75.7889 30.106 75.7269 31.1067 76.5719L38.042 82.4307C39.1052 83.3291 39.2393 84.9197 38.3409 85.983C37.4425 87.0468 35.8519 87.1804 34.7886 86.282L29.6235 81.919L28.2466 83.2958C27.5791 83.9633 27.5776 85.0473 28.2426 85.7128C29.2272 86.6974 29.2267 88.2936 28.2426 89.2777C27.7505 89.7703 27.1052 90.0163 26.4604 90.0163Z" fill="#333333"/>
<path d="M143.33 192.349L140.314 195.365C138.66 197.019 135.983 197.019 134.333 195.369L137.471 185.414L143.33 192.349Z" fill="#F9763D"/>
<path d="M137.32 199.123C135.592 199.123 133.865 198.466 132.551 197.151C131.566 196.167 131.566 194.571 132.551 193.586C133.535 192.601 135.132 192.601 136.116 193.586C136.782 194.251 137.866 194.249 138.533 193.582L139.91 192.205L135.547 187.04C134.648 185.977 134.782 184.386 135.846 183.488C136.908 182.59 138.499 182.723 139.398 183.787L145.257 190.722C146.102 191.723 146.04 193.205 145.114 194.132L142.098 197.147C140.78 198.464 139.05 199.123 137.32 199.123Z" fill="#333333"/>
<path d="M143.331 194.868C142.589 194.868 141.884 194.541 141.404 193.973L135.547 187.038C134.869 186.236 134.76 185.097 135.272 184.181C135.283 184.162 135.629 183.542 136.197 182.448C136.308 182.239 136.415 182.032 136.529 181.803C136.543 181.775 136.558 181.746 136.574 181.719C136.615 181.643 136.656 181.562 136.695 181.48C136.709 181.449 136.724 181.419 136.74 181.389C136.932 181.02 137.135 180.618 137.349 180.182C137.477 179.926 137.602 179.673 137.727 179.406C137.736 179.387 137.745 179.369 137.753 179.351C138.087 178.679 138.44 177.944 138.808 177.156L138.973 176.797C139.067 176.595 139.163 176.388 139.258 176.176C141.71 170.83 143.649 165.784 145.031 161.16C145.172 160.687 145.31 160.205 145.444 159.721C145.693 158.831 145.906 158.011 146.098 157.207C146.19 156.832 146.271 156.471 146.352 156.109C146.457 155.633 146.554 155.164 146.644 154.701L112.235 189.11C111.346 189.998 109.96 190.085 108.974 189.37C105.406 187.023 101.887 184.588 98.5105 182.131C93.671 178.614 88.8729 174.869 84.2508 171C78.8653 166.499 73.6085 161.733 68.6264 156.836C68.0183 156.244 67.4063 155.64 66.7988 155.032C66.1913 154.424 65.5873 153.813 64.9873 153.197C60.0995 148.225 55.3321 142.966 50.826 137.576C46.9908 132.994 43.2469 128.194 39.6996 123.312C37.2353 119.936 34.778 116.386 32.3999 112.767C31.744 111.768 31.8791 110.445 32.7246 109.6L67.1487 75.1759C53.379 77.8469 37.8257 86.455 37.6437 86.5568C36.7276 87.0675 35.5902 86.9581 34.7886 86.2815L27.8539 80.4237C27.2691 79.9301 26.9403 79.1981 26.9595 78.4333C26.9792 77.6685 27.3442 76.9541 27.9532 76.4907C41.7249 66.0123 57.1476 57.4536 73.7925 51.0518C76.9374 49.8428 80.1293 48.71 83.2798 47.684C83.7456 47.5313 84.2084 47.385 84.6667 47.2429C89.6367 45.6618 94.6163 44.3056 99.4512 43.2177C101.308 42.7982 117.941 39.1934 129.447 42.0132C130.688 42.3172 131.505 43.5015 131.349 44.7695C129.794 57.4022 134.058 69.8031 143.047 78.7917C152.016 87.7612 164.392 92.0305 176.993 90.5004C178.27 90.3481 179.455 91.1744 179.75 92.4242C182.027 102.078 180.002 116.242 178.613 122.382C177.63 126.712 176.465 131.074 175.151 135.349C174.815 136.459 174.483 137.51 174.141 138.553C172.694 142.997 171.076 147.405 169.335 151.651C163.104 166.938 155.028 181.145 145.336 193.874C144.873 194.483 144.158 194.848 143.393 194.867C143.373 194.868 143.352 194.868 143.331 194.868ZM140.504 185.094L143.211 188.296C151.801 176.575 159.012 163.621 164.669 149.744C166.365 145.608 167.939 141.318 169.35 136.986C169.682 135.974 170.002 134.959 170.33 133.877C171.61 129.712 172.742 125.473 173.696 121.268C175.08 115.153 176.498 103.832 175.256 95.73C161.923 96.6748 148.998 91.8712 139.483 82.3561C129.941 72.8154 125.141 59.8524 126.118 46.4821C117.763 45.141 106.365 46.8229 100.562 48.1352C95.8661 49.1925 91.0277 50.5098 86.1792 52.0526C85.7285 52.1922 85.2909 52.3309 84.8457 52.4766C81.7739 53.4768 78.6652 54.5799 75.6024 55.7576C60.4136 61.5993 46.2754 69.2823 33.5317 78.6178L36.7306 81.3221C42.0999 78.4933 60.1317 69.557 73.9765 69.3564C74.9823 69.3372 75.9352 69.9503 76.335 70.8956C76.7348 71.8409 76.521 72.9339 75.7955 73.6594L37.7465 111.708C39.7228 114.666 41.7455 117.564 43.7753 120.344C47.2585 125.138 50.9308 129.846 54.6929 134.341C59.1139 139.629 63.7889 144.787 68.5906 149.671C69.1829 150.279 69.7713 150.875 70.3642 151.467C70.9566 152.06 71.553 152.649 72.153 153.233C77.0463 158.043 82.2024 162.717 87.4855 167.133C92.0209 170.93 96.7278 174.603 101.476 178.053C104.279 180.093 107.183 182.117 110.13 184.086L148.165 146.051C148.891 145.325 149.984 145.112 150.93 145.512C151.875 145.912 152.484 146.846 152.468 147.872C152.426 150.661 152.025 153.8 151.274 157.204C151.184 157.607 151.096 158 151 158.393C150.796 159.247 150.567 160.128 150.301 161.073C150.161 161.581 150.014 162.092 149.864 162.599C148.414 167.452 146.391 172.72 143.849 178.262C143.753 178.475 143.649 178.698 143.548 178.917L143.384 179.273C142.995 180.105 142.629 180.869 142.282 181.567C142.142 181.866 142.002 182.15 141.866 182.422C141.648 182.865 141.436 183.287 141.234 183.675C141.164 183.821 141.091 183.963 141.018 184.098C140.894 184.346 140.777 184.572 140.664 184.787C140.608 184.893 140.555 184.996 140.504 185.094Z" fill="#333333"/>
<path d="M65.2046 206.379C64.5462 206.379 63.9019 206.12 63.4219 205.64L55.5474 197.767C54.9984 197.217 54.7332 196.446 54.828 195.675C54.9233 194.904 55.3685 194.221 56.035 193.821C56.0587 193.807 58.5603 192.3 62.155 189.641C64.463 187.94 66.7242 186.134 68.88 184.272C71.0968 182.343 73.186 180.373 75.0832 178.421C77.1306 176.31 79.008 174.16 80.6622 172.031C81.789 170.581 82.8291 169.123 83.7537 167.697L87.9841 170.441C86.9819 171.986 85.8576 173.562 84.6436 175.124C82.877 177.398 80.8775 179.689 78.7005 181.933C76.704 183.987 74.5114 186.055 72.1832 188.081C69.9236 190.034 67.5591 191.921 65.1502 193.697C63.6654 194.795 62.3627 195.704 61.3191 196.408L65.8878 200.976C67.7743 200.315 69.7154 199.497 71.6776 198.536C74.1464 197.331 76.7066 195.871 79.2884 194.196C81.611 192.683 83.968 190.986 86.2896 189.157C88.5085 187.408 90.7046 185.535 92.817 183.592C95.1866 181.421 97.0343 179.546 98.1677 178.355L101.836 181.813L101.833 181.817C100.633 183.079 98.698 185.042 96.2266 187.306C94.024 189.332 91.7295 191.288 89.4104 193.117C86.9703 195.039 84.4893 196.824 82.0365 198.422C79.2793 200.211 76.5407 201.772 73.8918 203.065C71.2016 204.382 68.5306 205.459 65.9558 206.264C65.7088 206.341 65.4557 206.379 65.2046 206.379Z" fill="#333333"/>
<path d="M22.906 174.151C22.2441 174.151 21.6013 173.89 21.1233 173.413L2.5672 154.856C1.76256 154.052 1.59669 152.808 2.16236 151.821C2.72752 150.834 3.88457 150.348 4.98566 150.635L18.6071 154.185L17.3356 159.064L12.6953 157.854L22.0162 167.175L23.5146 163.538L28.176 165.459L25.2373 172.591C24.9161 173.37 24.2269 173.937 23.4006 174.102C23.2358 174.135 23.0699 174.151 22.906 174.151Z" fill="#333333"/>
<path d="M68.7554 220C68.1031 220 67.4577 219.747 66.9722 219.262L48.4156 200.705C47.8197 200.109 47.561 199.255 47.7264 198.428C47.8913 197.602 48.4584 196.913 49.2379 196.592L56.3697 193.653L58.2906 198.315L54.6541 199.813L63.9745 209.134L62.765 204.494L67.6438 203.222L71.1941 216.843C71.4809 217.945 70.9949 219.101 70.0078 219.667C69.616 219.891 69.1845 220 68.7554 220Z" fill="#333333"/>
<path d="M46.4655 140.955L34.5985 129.087L36.3238 127.362L38.1014 125.462C38.1211 125.481 38.1443 125.503 38.164 125.522L50.0309 137.389L46.4655 140.955Z" fill="#333333"/>
<path d="M92.7449 187.234L80.8739 175.363L84.4394 171.798L96.3063 183.665L92.7449 187.234Z" fill="#333333"/>
<path d="M39.8721 146.725L28.9091 135.761L32.4705 132.192L43.4335 143.155L39.8721 146.725Z" fill="#333333"/>
<path d="M81.7749 187.583C81.1295 187.583 80.4847 187.337 79.9922 186.845L75.1144 181.967C74.1489 181.01 74.1136 179.45 75.0494 178.452C76.0017 177.436 77.5949 177.383 78.6103 178.336C78.6299 178.354 78.6531 178.377 78.6728 178.396L83.5571 183.28C84.5417 184.265 84.5417 185.861 83.5571 186.845C83.065 187.337 82.4202 187.583 81.7749 187.583Z" fill="#333333"/>
<path d="M35.6512 153.824C35.0069 153.824 34.3631 153.579 33.8715 153.087L28.228 147.443C27.2433 146.459 27.2433 144.862 28.228 143.878C29.2131 142.894 30.8088 142.894 31.7929 143.878L37.4329 149.519C38.4176 150.504 38.4191 152.101 37.4344 153.086C36.9419 153.578 36.2961 153.824 35.6512 153.824Z" fill="#333333"/>
<path d="M78.8774 198.093L68.7453 187.961C68.7262 187.942 68.7075 187.922 68.6889 187.903L70.5891 186.117L72.3103 184.396L82.4424 194.528L78.8774 198.093Z" fill="#333333"/>
<path d="M19.2445 150.824L28.3764 159.956L31.9414 156.391L22.8095 147.259L19.2445 150.824Z" fill="#333333"/>
<path d="M61.8716 193.45L71.0038 202.583L74.5687 199.018L65.4365 189.885L61.8716 193.45Z" fill="#333333"/>
<path d="M83.5913 64.8204C82.9459 64.8204 82.3011 64.5744 81.8086 64.0823L72.9187 55.1925L76.4836 51.6275L83.5908 58.7347L87.2616 55.0639L83.6316 51.4339L87.1965 47.869L92.6087 53.2812C93.0816 53.7541 93.3468 54.3949 93.3468 55.0639C93.3468 55.7329 93.0811 56.3737 92.6087 56.8466L85.373 64.0823C84.8814 64.5744 84.2366 64.8204 83.5913 64.8204Z" fill="#333333"/>
<path d="M166.102 153.05C164.636 152.489 163.332 151.644 162.228 150.54C157.915 146.227 157.917 139.208 162.232 134.893C165.208 131.917 169.539 130.892 173.536 132.217L171.949 137.002C169.774 136.281 167.416 136.839 165.797 138.458C163.447 140.807 163.446 144.628 165.793 146.975C166.394 147.576 167.104 148.036 167.905 148.342L166.102 153.05Z" fill="#333333"/>
<path d="M117.138 116.502C116.816 116.502 116.493 116.379 116.247 116.133C115.754 115.641 115.754 114.843 116.247 114.351L124.425 106.173C124.917 105.68 125.715 105.68 126.207 106.173C126.7 106.665 126.7 107.463 126.207 107.955L118.029 116.133C117.783 116.379 117.461 116.502 117.138 116.502Z" fill="white"/>
<path d="M149.959 150.342C149.313 150.342 148.668 150.096 148.176 149.604L143.475 144.903C142.49 143.919 142.49 142.322 143.475 141.338C144.46 140.354 146.056 140.354 147.04 141.338L151.741 146.039C152.725 147.024 152.725 148.62 151.741 149.604C151.249 150.096 150.603 150.342 149.959 150.342Z" fill="#333333"/>
<path d="M139.978 140.362C139.333 140.362 138.688 140.116 138.195 139.624L129.243 130.671C128.258 129.686 128.258 128.09 129.243 127.106C130.227 126.122 131.823 126.122 132.807 127.106L141.76 136.059C142.745 137.043 142.745 138.64 141.76 139.624C141.268 140.116 140.623 140.362 139.978 140.362Z" fill="#333333"/>
<path d="M92.1737 92.5573C91.5284 92.5573 90.8835 92.3113 90.391 91.8192L72.2306 73.6588C71.246 72.6742 71.246 71.078 72.2306 70.0939C73.2152 69.1098 74.8109 69.1098 75.7955 70.0939L93.9559 88.2543C94.9405 89.2389 94.9405 90.8351 93.9559 91.8192C93.4638 92.3108 92.819 92.5573 92.1737 92.5573Z" fill="#333333"/>
<path d="M140.873 107.064L117.138 130.797L91.0308 104.69L114.765 80.9561L140.873 107.064Z" fill="#158ACC"/>
<path d="M129.171 110.133L120.208 119.096C118.512 120.793 115.765 120.793 114.069 119.096L102.733 107.76C101.036 106.064 101.036 103.317 102.733 101.621L111.696 92.6581C113.392 90.9616 116.139 90.9616 117.835 92.6581L129.171 103.994C130.868 105.69 130.868 108.437 129.171 110.133Z" fill="#DD582A"/>
<path d="M125.883 109.075L119.149 115.808C117.875 117.083 115.811 117.083 114.537 115.808L106.02 107.291C104.745 106.017 104.745 103.953 106.02 102.679L112.753 95.9453C114.028 94.6708 116.091 94.6708 117.366 95.9453L125.883 104.462C127.157 105.737 127.157 107.8 125.883 109.075Z" fill="#F73E3E"/>
<path d="M117.138 133.319C116.493 133.319 115.848 133.073 115.356 132.581L89.2481 106.473C88.2634 105.489 88.2634 103.892 89.2481 102.908L102.024 90.1323C103.009 89.1482 104.604 89.1482 105.589 90.1323C106.574 91.1169 106.574 92.7131 105.589 93.6972L94.5952 104.691L117.138 127.233L137.307 107.065L114.764 84.522L111.551 87.7355C110.566 88.7196 108.97 88.7196 107.986 87.7355C107.001 86.7509 107.001 85.1547 107.986 84.1706L112.981 79.1749C113.966 78.1907 115.562 78.1907 116.546 79.1749L142.654 105.282C143.638 106.267 143.638 107.863 142.654 108.847L118.919 132.582C118.429 133.072 117.784 133.319 117.138 133.319Z" fill="#333333"/>
<path d="M116.914 120.143C115.367 120.143 113.82 119.555 112.643 118.377L103.452 109.187C102.31 108.045 101.682 106.529 101.682 104.915C101.682 103.302 102.31 101.785 103.452 100.644L110.718 93.377C113.074 91.0221 116.905 91.0221 119.261 93.377L128.451 102.568C130.806 104.923 130.806 108.755 128.451 111.11L121.185 118.377C120.007 119.555 118.461 120.143 116.914 120.143ZM114.989 96.6495C114.734 96.6495 114.478 96.7468 114.283 96.942L107.016 104.209C106.761 104.464 106.723 104.761 106.723 104.915C106.723 105.07 106.761 105.366 107.016 105.622L116.207 114.812C116.597 115.202 117.23 115.202 117.62 114.812L124.887 107.545C125.276 107.156 125.276 106.523 124.887 106.133L115.696 96.942C115.501 96.7468 115.245 96.6495 114.989 96.6495Z" fill="#333333"/>
<path d="M115.647 70.1781C115.591 70.1781 115.535 70.1766 115.478 70.1726C114.09 70.0803 113.038 68.8799 113.13 67.491L114.727 43.3366C114.819 41.9477 116.016 40.895 117.409 40.9877C118.798 41.0795 119.85 42.2804 119.758 43.6694L118.16 67.8237C118.072 69.1562 116.964 70.1781 115.647 70.1781Z" fill="#333333"/>
<path d="M114.768 83.4754C114.712 83.4754 114.655 83.4739 114.599 83.4698C113.21 83.3776 112.158 82.1772 112.25 80.7882L112.481 77.2929C112.572 75.9039 113.773 74.8517 115.162 74.944C116.551 75.0362 117.603 76.2367 117.511 77.6256L117.28 81.121C117.193 82.4535 116.084 83.4754 114.768 83.4754Z" fill="#333333"/>
<path d="M34.5042 113.904C33.2443 113.904 32.1558 112.962 32.0041 111.68C31.8402 110.297 32.8284 109.043 34.2108 108.88L70.2149 104.616C71.5933 104.453 72.8506 105.441 73.0145 106.823C73.1783 108.205 72.1902 109.459 70.8078 109.623L34.8037 113.886C34.7033 113.898 34.603 113.904 34.5042 113.904Z" fill="#333333"/>
<path d="M80.6753 108.437C79.4154 108.437 78.3269 107.495 78.1752 106.212C78.0113 104.83 78.9995 103.576 80.3819 103.413L90.7343 102.187C92.1152 102.025 93.3701 103.011 93.5339 104.393C93.6978 105.776 92.7096 107.03 91.3272 107.193L80.9748 108.419C80.8739 108.431 80.7741 108.437 80.6753 108.437Z" fill="#333333"/>
<path d="M140.871 109.583C139.554 109.583 138.446 108.561 138.358 107.228C138.266 105.839 139.318 104.638 140.707 104.547L162.642 103.095C164.033 103.004 165.232 104.055 165.324 105.444C165.416 106.833 164.364 108.034 162.975 108.125L141.039 109.577C140.982 109.581 140.926 109.583 140.871 109.583Z" fill="#333333"/>
<path d="M171.053 107.585C169.736 107.585 168.628 106.563 168.54 105.23C168.448 103.841 169.5 102.64 170.889 102.549L178.07 102.073C179.459 101.985 180.659 103.033 180.751 104.422C180.843 105.811 179.791 107.012 178.402 107.104L171.221 107.579C171.165 107.583 171.109 107.585 171.053 107.585Z" fill="#333333"/>
<path d="M110.448 189.842C110.35 189.842 110.249 189.836 110.149 189.824C108.767 189.661 107.778 188.407 107.942 187.025L110.122 168.619C110.286 167.237 111.539 166.249 112.921 166.412C114.304 166.576 115.292 167.829 115.128 169.212L112.949 187.618C112.797 188.899 111.708 189.842 110.448 189.842Z" fill="#333333"/>
<path d="M113.713 162.272C113.615 162.272 113.514 162.266 113.414 162.254C112.032 162.09 111.043 160.837 111.207 159.454L114.636 130.501C114.799 129.119 116.051 128.131 117.435 128.295C118.818 128.459 119.806 129.712 119.642 131.094L116.214 160.047C116.061 161.329 114.973 162.272 113.713 162.272Z" fill="#333333"/>
<path d="M204.032 155.077C202.64 155.077 201.511 153.948 201.511 152.556V141.75C201.511 140.358 202.64 139.229 204.032 139.229C205.424 139.229 206.553 140.358 206.553 141.75V152.555C206.553 153.948 205.424 155.077 204.032 155.077Z" fill="#FCBC1D"/>
<path d="M209.434 149.674H198.628C197.236 149.674 196.107 148.545 196.107 147.153C196.107 145.761 197.236 144.632 198.628 144.632H209.434C210.826 144.632 211.955 145.761 211.955 147.153C211.955 148.545 210.827 149.674 209.434 149.674Z" fill="#FCBC1D"/>
<path d="M64.8834 15.8473C63.4915 15.8473 62.3626 14.7185 62.3626 13.3265V2.5208C62.3626 1.12882 63.4915 0 64.8834 0C66.2754 0 67.4042 1.12882 67.4042 2.5208V13.3265C67.4042 14.719 66.2754 15.8473 64.8834 15.8473Z" fill="#FCBC1D"/>
<path d="M70.286 10.4447H59.4798C58.0879 10.4447 56.959 9.31587 56.959 7.92388C56.959 6.53189 58.0879 5.40308 59.4798 5.40308H70.286C71.678 5.40308 72.8068 6.53189 72.8068 7.92388C72.8068 9.31587 71.6785 10.4447 70.286 10.4447Z" fill="#FCBC1D"/>
</svg>
